<svg width="3855" height="589" viewBox="0 0 3855 589" fill="none" xmlns="http://www.w3.org/2000/svg">
<circle cx="283" cy="306" r="283" fill="#4BDD78"/>
<rect x="283" y="306" width="283" height="283" fill="#4BDD78"/>
<path d="M119.049 142.024C148.929 112.144 184.933 92.1185 223.021 81.9473C202.351 159.346 222.377 245.352 283.098 306.073C343.819 366.794 429.824 386.819 507.223 366.15C497.052 404.237 477.027 440.241 447.146 470.122C356.545 560.724 209.651 560.724 119.049 470.122C28.4473 379.52 28.4473 232.626 119.049 142.024Z" fill="white"/>
<circle cx="143" cy="267" r="39" fill="#4BDD78"/>
<path d="M959.301 106.494H1154.94V580H968.823V534.987C933.331 571.344 885.721 588.656 834.648 588.656C721.249 588.656 635.551 522.002 635.551 367.918V106.494H831.186V334.158C831.186 401.678 854.558 424.185 892.646 424.185C926.406 424.185 959.301 399.081 959.301 328.964V106.494Z" fill="#4BDD78"/>
<path d="M1543.82 427.647L1590.56 563.553C1560.27 580.866 1516.12 588.656 1470.24 588.656C1339.53 588.656 1263.35 527.196 1263.35 396.484V275.294H1198.43V132.464H1263.35V0.0205078H1458.99V132.464H1555.94V275.294H1458.99V394.753C1458.99 424.185 1476.3 440.632 1499.67 440.632C1515.25 440.632 1530.83 436.304 1543.82 427.647Z" fill="#4BDD78"/>
<path d="M1877.36 588.656C1717.22 588.656 1602.09 486.511 1602.09 342.814C1602.09 199.118 1717.22 97.8379 1877.36 97.8379C2038.37 97.8379 2152.63 199.118 2152.63 342.814C2152.63 486.511 2038.37 588.656 1877.36 588.656ZM1877.36 436.304C1920.64 436.304 1954.4 404.275 1954.4 342.814C1954.4 281.354 1920.64 250.191 1877.36 250.191C1834.08 250.191 1800.32 281.354 1800.32 342.814C1800.32 404.275 1834.08 436.304 1877.36 436.304Z" fill="#4BDD78"/>
<path d="M2468.36 588.656C2304.76 588.656 2188.76 487.376 2188.76 342.814C2188.76 199.118 2304.76 97.8379 2468.36 97.8379C2583.49 97.8379 2670.06 150.642 2701.22 238.072L2549.73 312.517C2529.82 268.369 2501.26 250.191 2467.5 250.191C2423.35 250.191 2386.99 281.354 2386.99 342.814C2386.99 405.14 2423.35 436.304 2467.5 436.304C2501.26 436.304 2529.82 418.125 2549.73 373.977L2701.22 448.423C2670.06 535.852 2583.49 588.656 2468.36 588.656Z" fill="#4BDD78"/>
<path d="M3068.46 106.494H3264.09V580H3077.98V534.987C3042.49 571.344 2994.88 588.656 2943.8 588.656C2830.4 588.656 2744.71 522.002 2744.71 367.918V106.494H2940.34V334.158C2940.34 401.678 2963.71 424.185 3001.8 424.185C3035.56 424.185 3068.46 399.081 3068.46 328.964V106.494Z" fill="#4BDD78"/>
<path d="M3854.67 342.814C3854.67 356.665 3852.94 374.843 3852.07 388.693H3523.13C3536.98 425.05 3569.87 444.094 3618.35 444.094C3661.63 444.094 3685.87 432.841 3717.03 409.469L3819.18 512.48C3773.3 562.687 3706.64 588.656 3612.29 588.656C3438.29 588.656 3325.76 483.914 3325.76 342.814C3325.76 199.118 3440.89 97.8379 3594.11 97.8379C3734.34 97.8379 3854.67 182.671 3854.67 342.814ZM3595.84 231.147C3555.15 231.147 3527.45 254.519 3519.66 294.338H3672.02C3664.23 254.519 3635.66 231.147 3595.84 231.147Z" fill="#4BDD78"/>
</svg>
